<svg xmlns="http://www.w3.org/2000/svg" viewBox="0 0 124 54" width="124" height="54"><title>immihelp_logo</title><path d="M71.60032,52.23606C39.80391,54.44835,13.35739,46.6121,12.531,34.73432,11.74985,23.51051,34.1239,12.6951,63.41679,9.67056q-3.21474.09017-6.517.31735C24.64816,12.23189-.81792,23.818.0201,35.8662.85862,47.914,27.68312,55.86257,59.93549,53.61833c4.61015-.32091,9.0804-.83282,13.35609-1.50987q-.84283.06811-1.69126.1276" fill="#ed2224"/><path d="M12.88,12.35494a329.49468,329.49468,0,0,1,68.032-6.05342C35.52293.60792,12.88,12.35494,12.88,12.35494" fill="#1072ba"/><polygon points="79.916 0 81.191 3.924 85.316 3.924 81.979 6.348 83.254 10.272 79.916 7.847 76.578 10.272 77.853 6.348 74.516 3.924 78.641 3.924 79.916 0" fill="#b4b4b4"/><path d="M30.15632,25.33544a1.81212,1.81212,0,0,1-1.94682,1.80438,1.81769,1.81769,0,1,1,.02372-3.63261A1.80993,1.80993,0,0,1,30.15632,25.33544ZM26.42871,40.17436V28.56445H30.0376V40.17436Z" fill="#272361"/><path d="M31.77007,32.2681c0-1.44823-.04744-2.68286-.09488-3.70365h3.039l.16616,1.56695h.07128a4.02565,4.02565,0,0,1,3.51377-1.82823,3.29014,3.29014,0,0,1,3.18145,1.97054h.04756a5.2,5.2,0,0,1,1.49579-1.40079,4.18959,4.18959,0,0,1,2.208-.56975c2.23183,0,3.91749,1.56694,3.91749,5.0334v6.83779H45.8018V33.85889c0-1.68567-.546-2.659-1.70939-2.659a1.7661,1.7661,0,0,0-1.66194,1.25823,3.01905,3.01905,0,0,0-.14257.92591v6.79035H38.77414V33.66888c0-1.47181-.52232-2.469-1.662-2.469a1.83681,1.83681,0,0,0-1.68579,1.30566,2.39346,2.39346,0,0,0-.14244.90232v6.76651H31.77007Z" fill="#272361"/><path d="M51.02342,32.2681c0-1.44823-.04743-2.68286-.09487-3.70365h3.039l.16616,1.56695H54.205a4.02565,4.02565,0,0,1,3.51377-1.82823,3.29014,3.29014,0,0,1,3.18145,1.97054h.04744a5.20074,5.20074,0,0,1,1.496-1.40079,4.18989,4.18989,0,0,1,2.208-.56975c2.23183,0,3.91749,1.56694,3.91749,5.0334v6.83779H65.05528V33.85889c0-1.68567-.54616-2.659-1.70951-2.659a1.76635,1.76635,0,0,0-1.662,1.25823,3.01512,3.01512,0,0,0-.14256.92591v6.79035H58.02749V33.66888c0-1.47181-.52231-2.469-1.66194-2.469a1.83684,1.83684,0,0,0-1.6858,1.30566,2.39365,2.39365,0,0,0-.14243.90232v6.76651h-3.5139Z" fill="#272361"/><path d="M74.00439,25.33544a1.81208,1.81208,0,0,1-1.94669,1.80438,1.81768,1.81768,0,1,1,.02359-3.63261A1.80986,1.80986,0,0,1,74.00439,25.33544ZM70.27691,40.17436V28.56445h3.60876V40.17436Z" fill="#272361"/><path d="M75.61827,23.31746H79.227V29.9414h.04769a4.3357,4.3357,0,0,1,1.42438-1.1872,4.05365,4.05365,0,0,1,1.87567-.451c2.30311,0,4.06005,1.59079,4.06005,5.08084v6.79035h-3.609V33.7876c0-1.5195-.52231-2.56413-1.87541-2.56413a1.92041,1.92041,0,0,0-1.80464,1.25847,2.29779,2.29779,0,0,0-.11872.80719v6.88523H75.61827Z" fill="#272361"/><path d="M91.12105,35.521c.11872,1.49566,1.59054,2.208,3.27645,2.208a10.22485,10.22485,0,0,0,3.20518-.47488l.47487,2.44542a11.45966,11.45966,0,0,1-4.20236.71231c-3.94133,0-6.19675-2.27926-6.19675-5.91187,0-2.94414,1.828-6.19675,5.86418-6.19675,3.75134,0,5.176,2.9203,5.176,5.79315a8.58172,8.58172,0,0,1-.11872,1.42464Zm4.2498-2.46927A2.09585,2.09585,0,0,0,93.329,30.70115a2.3693,2.3693,0,0,0-2.23183,2.35054Z" fill="#272361"/><path d="M99.69118,23.31746h3.60876v16.8569H99.69118Z" fill="#272361"/><path d="M105.03279,32.4581c0-1.51951-.04744-2.82542-.09487-3.89365h3.13389l.16615,1.61439h.04769a4.455,4.455,0,0,1,3.8698-1.87567c2.54055,0,4.81981,2.208,4.81981,5.91187,0,4.22621-2.68286,6.2206-5.27084,6.2206a3.60613,3.60613,0,0,1-3.01517-1.32976h-.04769v5.76956h-3.60877Zm3.60877,2.73029a3.59662,3.59662,0,0,0,.07128.75976,2.18437,2.18437,0,0,0,2.11311,1.7095c1.56694,0,2.49285-1.30591,2.49285-3.27645,0-1.85182-.83078-3.25261-2.44542-3.25261a2.26719,2.26719,0,0,0-2.16054,1.828,2.79561,2.79561,0,0,0-.07128.64128Z" fill="#272361"/><path d="M119.77759,17.61584A4.30257,4.30257,0,1,0,124,21.91748,4.26258,4.26258,0,0,0,119.77759,17.61584Zm-.00037,7.74317a3.44213,3.44213,0,1,1,3.378-3.44153A3.4101,3.4101,0,0,1,119.77722,25.359Z" fill="#272361"/><path d="M120.64209,22.253a1.25488,1.25488,0,0,0,.81885-1.23651c0-.98566-.63483-1.50372-1.70417-1.50372a2.80189,2.80189,0,0,0-1.53729.334v4.67871h.95246V22.4198h.36761s1.06934.11719,1.06934,2.10571h.88562S121.561,22.8042,120.64209,22.253Zm-.80206-.4472h-.65125V20.44006a.62.62,0,0,1,.50965-.22454.68806.68806,0,0,1,.81042.71191A.79133.79133,0,0,1,119.84,21.80579Z" fill="#272361" fill-rule="evenodd"/></svg>