<?xml version="1.0" encoding="UTF-8"?><svg id="USCIS_RGB_Hor_Blue_at20" xmlns="http://www.w3.org/2000/svg" viewBox="0 0 2454 840"><defs><style>.cls-1{fill:#005288;}.cls-2{fill:#0078ae;}.cls-3{fill:#fff;}.cls-4{fill:#c41230;}.cls-5{fill:#c0c2c4;}.cls-6{fill:#5e9732;}</style></defs><g><g><path class="cls-1" d="m849.05,98.03h61.4v11.73h-19.67v71.01c0,33.76,16.41,48.76,37.28,48.76s37.27-12.21,37.27-50.4v-69.38h-19.22v-11.73h57.88v11.73h-18.98v72.89c0,37.75-20.61,58.58-57.89,58.58-34.93,0-59.09-16.14-59.09-63.02v-68.44h-18.98v-11.73Z"/><path class="cls-1" d="m1025.47,226.03c0,8.17-6.6,14.74-14.77,14.74s-14.79-6.57-14.79-14.74,6.62-14.8,14.79-14.8,14.77,6.6,14.77,14.8Z"/><path class="cls-1" d="m1054.68,196.24h11.73v17.85c9.4,11.22,18.54,16.14,28.38,16.14,13.13,0,23.42-9.83,23.42-22.47,0-23.72-32.54-28.39-51.55-47.36-9.14-9.17-12.67-18.77-12.67-28.38,0-18.53,15.47-36.34,39.84-36.34,10.11,0,19.23,1.85,27.22,7.03v-7.49h11.71v38.2h-11.71v-15.24c-5.87-7.52-14.8-11.97-24.4-11.97-15.7,0-22.49,9.4-22.49,20.19,0,22.02,32.09,25.27,52.27,45.48,8.9,8.89,11.94,16.87,11.94,28.35,0,23.9-16.86,40.58-42.19,40.58-10.8,0-19.22-3.32-29.78-9.86v10.28h-11.73v-44.99Z"/><path class="cls-1" d="m1183.44,226.03c0,8.17-6.62,14.74-14.8,14.74s-14.74-6.57-14.74-14.74,6.57-14.8,14.74-14.8,14.8,6.6,14.8,14.8Z"/></g><g><g><path class="cls-1" d="m864.48,360.04c11.7-10.31,25.56-16.13,37.28-16.13,18.99,0,30.73,13.1,30.73,34.42v40.11c0,9.83,4.19,15.94,10.08,15.94,1.84,0,7.96-.92,10.09-1.4v6.56c-7.28,5.15-14.55,8-21.37,8-7.48,0-12.63-4.23-17.79-14.57-11.74,8.67-20.18,14.57-28.62,14.57-12.9,0-22.74-11.52-22.74-25.82s7.95-22.74,27.18-27.45l21.6-5.4v-13.13c0-11.49-3.55-19.44-16.44-19.44-7.49,0-15.93,3.29-27.65,10.55l-2.35-6.82Zm17.83,58.87c0,7.48,5.39,13.13,12.65,13.13,4.68,0,9.85-2.33,15.97-7.27v-26.26c-20.43,4.91-28.62,10.8-28.62,20.39Z"/><path class="cls-1" d="m958.97,435.1h17.84v-78.78h-17.84v-9.6h39.39v11.01c11.51-8.44,23.2-13.82,36.33-13.82,15.49,0,26.97,9.81,26.97,28.59v62.6h17.33v9.59h-54.35v-9.59h15.44v-57.7c0-13.36-7.27-20.38-17.33-20.38-7.3,0-16.2,3.75-24.38,10.32v67.76h16.17v9.59h-55.56v-9.59Z"/><path class="cls-1" d="m1156.9,435.1h-9.34c-23.21,0-39.86-11.03-39.86-41.01,0-23.94,9.82-37.77,26.24-37.77,7.52,0,15.68,3.73,22.96,11.02v67.76Zm-17.33-135.04h17.33v56.25c-9.6-8.18-19.92-12.41-29.76-12.41-23.68,0-43.6,22.71-43.6,50.18,0,30.94,22.02,50.61,56.03,50.61h56.26v-9.59h-17.35v-144.66h-38.91v9.63Z"/></g><g><path class="cls-1" d="m1272.13,432.96h19.45v-116.99h-19.45v-11.72h61.65v11.72h-19.45v116.99h19.45v11.73h-61.65v-11.73Z"/><path class="cls-1" d="m1347.83,435.08h17.35v-78.8h-17.35v-9.61h38.95v11.26c14.99-7.99,26.25-14.06,38.69-14.06,11.24,0,20.38,6.08,24.15,16.4,10.06-7.75,26.25-16.4,39.38-16.4,18.29,0,28.13,11.71,28.13,32.8v58.41h17.11v9.61h-55.11v-9.61h16.42v-52.08c0-16.87-5.86-24.85-18.02-24.85-7.29,0-16.88,4.46-25.59,10.55v66.38h17.14v9.61h-55.07v-9.61h16.39v-49.03c0-16.64-2.34-27.89-17.58-27.89-8.88,0-15.01,3.77-26.02,10.55v66.38h16.65v9.61h-55.59v-9.61Z"/><path class="cls-1" d="m1543.13,435.08h17.34v-78.8h-17.34v-9.61h38.91v11.26c15.02-7.99,26.24-14.06,38.71-14.06,11.24,0,20.35,6.08,24.13,16.4,10.07-7.75,26.25-16.4,39.41-16.4,18.26,0,28.1,11.71,28.1,32.8v58.41h17.12v9.61h-55.07v-9.61h16.39v-52.08c0-16.87-5.85-24.85-18.03-24.85-7.28,0-16.9,4.46-25.54,10.55v66.38h17.09v9.61h-55.09v-9.61h16.39v-49.03c0-16.64-2.31-27.89-17.58-27.89-8.9,0-15.01,3.77-26.01,10.55v66.38h16.65v9.61h-55.56v-9.61Z"/><path class="cls-1" d="m1737.62,435.08h17.11v-78.8h-17.11v-9.61h38.69v88.41h16.63v9.61h-55.32v-9.61Zm39.16-115.74c0,7.27-6.09,13.35-13.37,13.35s-13.35-6.08-13.35-13.35,6.08-13.33,13.35-13.33,13.37,6.08,13.37,13.33Z"/><path class="cls-1" d="m1823.51,381.12c0-17.78,7.97-28.59,21.3-28.59s20.65,11.03,20.65,29.78-7.97,28.61-20.65,28.61c-13.33,0-21.3-11.26-21.3-29.8Zm71.96-34.44h-30.47c-3.05,0-5.86-.69-9.16-1.41-3.5-.69-7.51-1.39-13.35-1.39-24.39,0-41.29,15.23-41.29,37.5,0,18.76,11.04,31.41,32.39,37.04v.47l-3.54.69c-11.49,3.07-16.63,8.46-16.63,15.25,0,5.87,4.22,11.5,11.94,16.42-19.67,6.79-28.82,15-28.82,24.58,0,12.24,17.57,27.25,48.27,27.25s49.24-12.64,49.24-32.38c0-6.08-1.4-10.57-6.54-15.7-15.04-15-53.69-14.79-53.69-26.5,0-1.41.44-1.89,1.62-3.06,7.05-7.02,24.41-1.64,41.98-19.22,6.81-6.8,10.31-16.65,10.31-25.78s-3.29-16.88-9.83-24.16h17.57v-9.61Zm-61.87,108.08c31.62,8.92,42.16,13.62,42.16,22.27,0,3.98-3.02,7.99-7.72,9.62-5.14,1.89-14.04,3.31-22.28,3.31-16.85,0-28.11-6.61-28.11-16.22,0-6.8,4.2-11.69,15.94-18.99Z"/><path class="cls-1" d="m1904.67,435.08h17.61v-78.8h-17.61v-9.61h39.2v16.4h.45c11.7-14.53,17.54-19.2,23.88-19.2,5.88,0,11.02,2.8,16.63,9.37-1.86,9.83-4.88,17.8-8.9,24.15-5.61-10.32-8.91-13.84-15.45-13.84s-11.27,4.23-16.62,11.72v59.81h17.57v9.61h-56.77v-9.61Z"/><path class="cls-1" d="m2041.04,398.49v26.28c-6.07,4.89-11.24,7.28-15.94,7.28-7.27,0-12.66-5.64-12.66-13.16,0-9.63,8.2-15.48,28.59-20.4Zm-44.07-31.65c11.72-7.27,20.16-10.56,27.68-10.56,12.89,0,16.39,7.99,16.39,19.46v13.12l-21.55,5.42c-19.23,4.67-27.22,12.88-27.22,27.43s9.87,25.78,22.74,25.78c8.46,0,16.9-5.86,28.62-14.54,5.15,10.31,10.31,14.54,17.84,14.54,6.77,0,14.03-2.8,21.31-7.97v-6.57c-2.11.46-8.22,1.4-10.09,1.4-5.86,0-10.09-6.08-10.09-15.94v-40.11c0-21.31-11.68-34.43-30.69-34.43-11.72,0-25.55,5.86-37.27,16.16l2.33,6.8Z"/><path class="cls-1" d="m2080.57,356.28l35.13-36.34v26.73h27.44v9.61h-27.44v56.75c0,15.47,4.23,22.74,13.13,22.74,9.37,0,14.07-7.5,16.43-7.5,1.4,0,2.34,1.85,2.34,3.02,0,2.6-8.69,16.2-25.78,16.2s-27.67-11.5-27.67-32.58v-58.63h-13.58Z"/><path class="cls-1" d="m2156.74,435.08h17.11v-78.8h-17.11v-9.61h38.66v88.41h16.67v9.61h-55.34v-9.61Zm39.18-115.74c0,7.27-6.11,13.35-13.38,13.35s-13.36-6.08-13.36-13.35,6.1-13.33,13.36-13.33,13.38,6.08,13.38,13.33Z"/><path class="cls-1" d="m2242.63,395.66c0-26.49,11.24-42.18,29.76-42.18s29.77,15.69,29.77,42.18-11.02,42.25-29.77,42.25-29.76-15.71-29.76-42.25Zm-24.15,0c0,29.11,23.66,51.84,53.91,51.84s53.93-22.73,53.93-51.84-23.69-51.78-53.93-51.78-53.91,22.72-53.91,51.78Z"/><path class="cls-1" d="m2333.98,435.08h17.8v-78.8h-17.8v-9.61h39.38v11.03c11.47-8.46,23.18-13.83,36.3-13.83,15.48,0,26.97,9.84,26.97,28.56v62.64h17.36v9.61h-54.37v-9.61h15.43v-57.69c0-13.35-7.25-20.39-17.35-20.39-7.23,0-16.17,3.77-24.34,10.31v67.78h16.16v9.61h-55.55v-9.61Z"/></g></g><g><path class="cls-1" d="m1361.78,224.37c-13.61,11.23-30.93,16.89-50.88,16.89-41.95,0-71.25-31.9-71.25-71.51,0-42.89,30.96-74.56,73.38-74.56,11.73,0,22.96,2.14,33.76,6.1l1.61-7.96h8.7v41.01h-10.31c-4-17.33-16.65-27.4-34.7-27.4-26.97,0-45.03,23.66-45.03,59.52,0,37.77,20.41,63.06,50.87,63.06,13.63,0,27.68-5.14,43.85-17.09v11.95Z"/><path class="cls-1" d="m1373.97,228.84h17.14v-78.78h-17.14v-9.6h38.69v88.39h16.62v9.6h-55.31v-9.6Zm39.14-115.72c0,7.26-6.07,13.35-13.33,13.35s-13.39-6.09-13.39-13.35,6.08-13.36,13.39-13.36,13.33,6.09,13.33,13.36Z"/><path class="cls-1" d="m1439.62,150.06l35.16-36.33v26.72h27.44v9.6h-27.44v56.73c0,15.47,4.23,22.73,13.12,22.73,9.38,0,14.08-7.47,16.42-7.47,1.41,0,2.34,1.87,2.34,3.05,0,2.57-8.67,16.17-25.81,16.17s-27.63-11.49-27.63-32.61v-58.59h-13.59Z"/><path class="cls-1" d="m1515.81,228.84h17.11v-78.78h-17.11v-9.6h38.66v88.39h16.63v9.6h-55.29v-9.6Zm39.12-115.72c0,7.26-6.09,13.35-13.34,13.35s-13.38-6.09-13.38-13.35,6.07-13.36,13.38-13.36,13.34,6.09,13.34,13.36Z"/><path class="cls-1" d="m1582.37,140.45h81.36v3.75l-55.57,84.63h49.93v-16.9h8.45v26.5h-87.67v-3.77l55.28-84.62h-43.35v13.36h-8.44v-22.97Z"/><path class="cls-1" d="m1700.99,172.08c1.41-16.65,6.79-24.83,19.66-24.83s20.18,8.9,22.05,24.83h-41.71Zm64.71,9.6c-3.76-28.35-19.23-44.05-43.6-44.05-26.98,0-44.54,19.21-44.54,48.99,0,27.44,18.03,54.62,51.32,54.62,13.36,0,20.88-2.57,36.82-12.41l1.62-10.56c-11.71,7.47-22.51,11.23-32.57,11.23-20.86,0-33.76-19.66-33.76-47.82h64.71Z"/><path class="cls-1" d="m1776.47,228.84h17.8v-78.78h-17.8v-9.6h39.38v11c11.47-8.42,23.21-13.81,36.34-13.81,15.45,0,26.96,9.82,26.96,28.6v62.6h17.35v9.6h-54.39v-9.6h15.47v-57.68c0-13.35-7.25-20.4-17.35-20.4-7.24,0-16.17,3.73-24.37,10.32v67.76h16.16v9.6h-55.54v-9.6Z"/><path class="cls-1" d="m1907.73,208.19h5.17c3.28,14.52,14.29,23.46,25.77,23.46,10.34,0,17.36-5.17,17.36-12.88,0-15.26-22.96-15.26-39.4-31.67-6.33-6.32-9.37-13.6-9.37-20.65,0-15.9,14.53-28.81,32.32-28.81,6.82,0,11.75,1.39,19.47,5.61v-5.39h7.27v26.03h-5.63c-2.79-10.55-10.31-16.63-20.15-16.63-8.43,0-15.01,5.61-15.01,12.87,0,13.84,25.31,17.84,40.58,33.06,5.61,5.63,8.18,12.17,8.18,19.23,0,17.09-13.6,28.84-33.27,28.84-9.37,0-14.76-1.65-25.09-7.26l-1.42,6.8h-6.79v-32.61Z"/><path class="cls-1" d="m1982.08,228.84h17.77V93.81h-17.77v-9.62h39.37v67.26c9.84-7.96,22.96-13.81,36.07-13.81,14.32,0,27.45,9.36,27.45,29.31v61.9h16.86v9.6h-54.84v-9.6h16.43v-57.47c0-12.89-7.51-20.61-17.82-20.61-6.8,0-14.56,3.29-24.15,10.09v67.99h15.91v9.6h-55.27v-9.6Z"/><path class="cls-1" d="m2111.92,228.84h17.14v-78.78h-17.14v-9.6h38.69v88.39h16.63v9.6h-55.33v-9.6Zm39.15-115.72c0,7.26-6.1,13.35-13.36,13.35s-13.36-6.09-13.36-13.35,6.07-13.36,13.36-13.36,13.36,6.09,13.36,13.36Z"/><path class="cls-1" d="m2216.7,161.09c8.21-9.63,13.62-12.92,21.8-12.92,16.64,0,27.19,17.35,27.19,45.26,0,21.55-9.1,38.23-25.54,38.23-9.15,0-17.81-5.4-23.45-14.06v-56.5Zm-38.9,134.55h56.01v-9.62h-17.11v-52.99c7.03,5.42,15.95,8.23,25.56,8.23,36.33,0,47.59-29.8,47.59-53.47,0-36.1-24.37-50.15-44.08-50.15-5.63,0-10.55.93-15.25,2.82-4.67,1.85-9.13,5.14-13.82,9.6v-9.6h-38.9v9.6h17.35v135.97h-17.35v9.62Z"/></g><g><g><path class="cls-1" d="m862.13,607.77h11.72v17.81c9.37,11.24,18.52,16.2,28.36,16.2,13.12,0,23.45-9.86,23.45-22.52,0-23.65-32.58-28.39-51.57-47.35-9.16-9.15-12.64-18.76-12.64-28.37,0-18.51,15.45-36.33,39.82-36.33,10.09,0,19.23,1.87,27.18,7.01v-7.47h11.75v38.2h-11.75v-15.22c-5.84-7.53-14.75-11.97-24.34-11.97-15.72,0-22.52,9.37-22.52,20.14,0,22.05,32.11,25.35,52.29,45.5,8.89,8.91,11.94,16.87,11.94,28.35,0,23.91-16.89,40.54-42.2,40.54-10.78,0-19.21-3.25-29.77-9.83v10.34h-11.72v-45.04Z"/><path class="cls-1" d="m983.47,583.61c1.41-16.62,6.8-24.81,19.7-24.81s20.15,8.88,22.04,24.81h-41.73Zm64.68,9.64c-3.73-28.38-19.2-44.08-43.59-44.08-26.93,0-44.52,19.21-44.52,49,0,27.4,18.04,54.62,51.34,54.62,13.35,0,20.87-2.61,36.77-12.43l1.66-10.58c-11.75,7.53-22.52,11.25-32.58,11.25-20.86,0-33.76-19.7-33.76-47.8h64.68Z"/><path class="cls-1" d="m1059.18,640.38h17.61v-78.79h-17.61v-9.6h39.16v16.4h.47c11.72-14.54,17.58-19.21,23.91-19.21,5.86,0,11.03,2.81,16.63,9.37-1.85,9.84-4.88,17.8-8.9,24.17-5.64-10.31-8.93-13.86-15.47-13.86s-11.24,4.22-16.63,11.72v59.81h17.57v9.61h-56.73v-9.61Z"/><path class="cls-1" d="m1146.5,551.99h48.99v9.6h-12.91l23.43,55.34,19.95-55.34h-14.3v-9.6h37.49v9.6h-13.34l-33.06,90.5h-4.47l-38.91-90.5h-12.87v-9.6Z"/><path class="cls-1" d="m1258.78,640.38h17.1v-78.79h-17.1v-9.6h38.65v88.39h16.67v9.61h-55.33v-9.61Z"/><path class="cls-1" d="m1404.74,580.14h-6.81c-2.55-14.32-12.85-21.33-23.42-21.33-15.69,0-26.24,11.45-26.24,36.55,0,28.83,11.02,44.33,31.41,44.33,15.93,0,25.32-10.81,27.63-10.81,1.92,0,3.32,4.22,3.32,5.87,0,3.98-16.2,18.07-38.21,18.07-27.43,0-48.3-23.46-48.3-54.16,0-28.82,19.47-49.47,46.86-49.47,8.24,0,14.33,1.38,25.12,6.09l1.84-5.86h6.81v30.73Z"/><path class="cls-1" d="m1445.54,583.61c1.44-16.62,6.79-24.81,19.71-24.81s20.14,8.88,22.03,24.81h-41.74Zm64.72,9.64c-3.77-28.38-19.24-44.08-43.62-44.08-26.96,0-44.54,19.21-44.54,49,0,27.4,18.08,54.62,51.34,54.62,13.38,0,20.84-2.61,36.82-12.43l1.62-10.58c-11.72,7.53-22.5,11.25-32.59,11.25-20.85,0-33.76-19.7-33.76-47.8h64.72Z"/><path class="cls-1" d="m1525.27,619.76h5.12c3.28,14.5,14.29,23.44,25.82,23.44,10.3,0,17.35-5.18,17.35-12.91,0-15.25-23.02-15.25-39.39-31.64-6.35-6.32-9.4-13.6-9.4-20.64,0-15.94,14.55-28.82,32.39-28.82,6.75,0,11.71,1.38,19.43,5.61v-5.39h7.28v26.03h-5.65c-2.81-10.56-10.31-16.63-20.15-16.63-8.45,0-15,5.6-15,12.87,0,13.85,25.32,17.82,40.57,33.04,5.61,5.61,8.18,12.21,8.18,19.24,0,17.09-13.6,28.85-33.3,28.85-9.36,0-14.75-1.66-25.06-7.29l-1.41,6.78h-6.78v-32.54Z"/></g><path class="cls-1" d="m1297.93,524.65c0,7.27-6.09,13.35-13.37,13.35s-13.35-6.08-13.35-13.35,6.08-13.33,13.35-13.33,13.37,6.08,13.37,13.33Z"/></g></g><g><g><polygon class="cls-2" points="166.86 733.35 163.37 755.22 182.36 766.6 160.49 770.04 155.53 791.62 145.5 771.88 123.45 773.83 139.12 758.19 130.45 737.82 150.16 747.89 166.86 733.35"/><polygon class="cls-2" points="50.65 645.72 41.55 662.1 53.36 676.65 34.97 673.06 24.77 688.79 22.51 670.19 4.4 665.35 21.39 657.45 20.4 638.74 33.16 652.45 50.65 645.72"/><polygon class="cls-2" points="570.14 733.35 586.84 747.89 606.55 737.82 597.88 758.19 613.55 773.83 591.5 771.88 581.47 791.62 576.51 770.04 554.64 766.6 573.63 755.22 570.14 733.35"/><polygon class="cls-2" points="686.35 645.72 703.84 652.45 716.6 638.74 715.61 657.45 732.6 665.35 714.49 670.19 712.23 688.79 702.03 673.06 683.64 676.65 695.45 662.1 686.35 645.72"/><polygon class="cls-2" points="103.72 693.8 96.99 713.02 112.31 726.43 91.95 725.97 83.93 744.69 78.08 725.18 57.79 723.34 74.54 711.74 70.03 691.88 86.23 704.23 103.72 693.8"/><polygon class="cls-2" points="633.28 693.8 650.77 704.23 666.97 691.88 662.46 711.74 679.21 723.34 658.92 725.18 653.07 744.69 645.05 725.97 624.69 726.43 640.01 713.02 633.28 693.8"/></g><g><path class="cls-2" d="m224.04,817.45c-2.92,0-5.97-.47-9.05-1.46l-18.27-5.84,14.87-46.52,18.27,5.84c6.98,2.23,12.54,6.61,15.67,12.34,3.09,5.65,3.66,12.28,1.62,18.68-3.41,10.68-12.47,16.95-23.11,16.95Zm-12.91-13.92l7.12,2.28c3.84,1.23,7.51,1.04,10.62-.55,3.1-1.59,5.38-4.43,6.59-8.21l.04-.13c2.5-7.82-1.07-14.76-8.9-17.26l-7.12-2.28-8.36,26.15Z"/><path class="cls-2" d="m291,835.92l-11.42-2.6,4.24-18.63-17.63-4.01-4.24,18.63-11.42-2.59,10.83-47.63,11.42,2.6-4.18,18.37,17.63,4.01,4.18-18.37,11.42,2.6-10.83,47.63Z"/><path class="cls-2" d="m324.7,840c-.91,0-1.85-.05-2.81-.14h0c-7.64-.76-14.65-4.23-19.74-9.77l-.4-.44,7.76-7.61.43.44c4.26,4.29,8.45,6.51,13.19,6.98,1.97.19,3.63-.02,4.79-.63,1.09-.57,1.7-1.44,1.81-2.6.23-2.32-.91-3.68-8.53-6.46-8.92-3.25-15.67-6.54-14.66-16.68.88-8.9,8.57-14.33,18.69-13.32,6.84.68,12.68,3.35,17.37,7.94l.41.4-6.97,8.22-.47-.4c-4.12-3.51-7.88-5.39-11.51-5.75-1.76-.17-3.24.06-4.29.67-.91.53-1.44,1.33-1.54,2.3-.27,2.74,1.27,3.85,9.18,6.73,9.05,3.35,14.9,7.4,14.01,16.35-.48,4.85-2.63,8.6-6.23,10.97-2.81,1.85-6.4,2.81-10.5,2.81Z"/><path class="cls-2" d="m359.51,836.67l.16-.43,14.82-38.9,6.18-.14.08.19,16.61,38.43-7.25.16-3.79-9.11-16.33.37-3.44,9.28-7.05.16Zm18.17-30.26l-5.31,14.22,11.28-.25-5.97-13.97Z"/><path class="cls-2" d="m409.12,834.62l-3-31.74-12.03,1.14-.64-6.79,31.38-2.96.64,6.79-12.02,1.14,3,31.74-7.33.69Z"/><path class="cls-2" d="m453.05,835.94l-2.1-9.46,4.21-4.64c13.29-14.64,18.26-20.12,16.95-26.03-.49-2.22-1.62-3.92-3.27-4.92-1.7-1.03-3.9-1.29-6.36-.75-5,1.11-7.53,5.02-6.43,9.97l.27,1.21-10.43,2.31-.27-1.21c-1.13-5.11-.29-10.12,2.38-14.09,2.69-4.01,6.97-6.76,12.38-7.96,5.26-1.16,10.15-.61,14.13,1.59,4.13,2.29,6.91,6.17,8.03,11.21,2.27,10.26-3.92,16.83-14.17,27.7-.36.38-.73.77-1.1,1.17l19.53-4.33,2.35,10.21-36.09,8Z"/><path class="cls-2" d="m516.52,818.97c-4.1,0-8.15-.94-11.88-2.81-6.35-3.18-11.15-8.65-13.53-15.42-5.04-14.34,2.28-29.53,16.65-34.58,14.35-5.04,29.52,2.25,34.56,16.59,2.38,6.76,2.05,14.04-.91,20.49-3.05,6.63-8.61,11.65-15.66,14.13-3.03,1.07-6.14,1.6-9.22,1.6Zm-5.19-42.64c-8.67,3.05-13.09,12.2-10.05,20.85,1.46,4.15,4.39,7.48,8.26,9.37,3.91,1.91,8.4,2.15,12.64.66,4.21-1.48,7.55-4.46,9.4-8.4,1.83-3.9,2.04-8.33.58-12.48-3.04-8.64-12.18-13.04-20.82-10h0Z"/></g></g><g><circle class="cls-3" cx="368.5" cy="368.5" r="368.5" transform="translate(-152.64 368.5) rotate(-45)"/><g><path class="cls-4" d="m592.39,236.11c-4.13,1.42-8.25,2.55-12.26,3.42,22.94,37.57,36.16,81.72,36.16,128.94,0,136.83-110.92,247.75-247.74,247.75s-247.74-110.92-247.74-247.75c0-49.3,14.41-95.25,39.24-133.84-3.95-1.15-7.81-2.65-11.68-4.48-25.23,40.06-39.82,87.49-39.82,138.32,0,143.61,116.41,260.02,260.01,260.02s260.01-116.41,260.01-260.02c0-48.34-13.19-93.6-36.17-132.37Z"/><path class="cls-4" d="m224.51,166.9c40.59-29.05,90.32-46.15,144.04-46.15,60,0,115.03,21.33,157.9,56.83,4.84-1.38,9.55-2.62,14.37-3.85-45.87-40.6-106.17-65.25-172.26-65.25-59.24,0-113.86,19.82-157.58,53.19,2.07.75,4.15,1.51,6.26,2.32,2.51.96,4.93,1.93,7.28,2.91Z"/></g><path class="cls-5" d="m368.5,0C164.99,0,0,164.98,0,368.49s164.99,368.51,368.5,368.51,368.5-164.98,368.5-368.51S572.02,0,368.5,0Zm.01,714.18c-190.92,0-345.68-154.77-345.68-345.68S177.59,22.84,368.51,22.84s345.66,154.76,345.66,345.66-154.76,345.68-345.66,345.68Z"/><g><path class="cls-1" d="m279.59,294.61c-5.26-2.69-9.84-5.8-14.76-10.28-15.82-14.41-19.56-29.57-14.88-46.97,2.78-10.36,7.02-15.58,5.58-26.39-.82-6.19-5.21-11.17-9.59-15.37-10.57-10.17-23.1-16.44-41.63-22.68-11.44-3.84-44.7-14.17-59.38-27.45-3.32,9.76,3.78,22.74,12.24,24.48-7.48.75-13.89,4.66-16.86,8.9,5.64,6.54,16.93,13.35,26.23,13.53-4.3,2.88-9.54,8.99-11.29,12.42,8.05,4.28,20.88,7.88,30.76,7.19-4.15,3.32-7.75,7.54-10.09,11.41,6.68,3.05,19.67,7.47,32.05,8.39-4.56,2.25-11.06,10.02-14.42,14.81,6.95,3.11,22.02,4.99,31.37,5.92-6.69,3.52-13.68,10.54-17.54,16.89,6.77,3.25,19.52,6.87,29.93,6.54-5.13,4.91-8.53,10.91-10.48,16.69,7.88,1.61,16.18,1.65,25.78.37-5.84,7.38-8.17,17.14-9,24.12,7.82-.23,18.18-2,25.5-6.38-1.6,5.97-1.23,14.03,1.33,19.74,3.06-.69,6.63-1.97,10.51-4.07-.55-11.08-1.03-22.44-1.36-31.8Z"/><path class="cls-1" d="m597.12,163.4c-14.68,13.29-38.16,16.85-62.8,24.99-18.56,6.12-30.08,9.71-46.71,22.96-4.74,3.78-9.26,9.31-8.75,18.87.56,10.61,2.29,15.19,2.55,30.02.2,10.57-3.44,19.07-7.89,24.1-4.68,5.31-10.79,9.93-16.24,12.79-.33,9.02-.74,18.08-1.24,28.61,3.86,2.1,8.81,4.07,11.87,4.76,2.55-5.7,2.92-13.76,1.32-19.74,7.31,4.39,17.68,6.15,25.5,6.38-.83-6.98-3.16-16.73-9-24.12,9.6,1.29,17.89,1.25,25.77-.37-1.94-5.79-5.34-11.78-10.46-16.69,10.41.34,23.17-3.28,29.94-6.54-3.87-6.35-10.85-13.37-17.54-16.89,9.34-.93,24.82-2.75,31.78-5.86-3.37-4.79-10.3-12.62-14.84-14.88,12.37-.92,25.36-5.34,32.05-8.39-2.35-3.86-5.95-8.09-10.08-11.41,11.6-.78,22.71-2.91,30.75-7.19-1.76-3.43-7-9.54-11.29-12.42,24.84-6.92,25.26-19.33,25.3-28.99Z"/><path class="cls-1" d="m492.66,189.64c-35.23-24.47-78.02-38.81-124.16-38.81-42.07,0-81.35,11.93-114.66,32.57,8.64,6.71,13.77,13.8,15.02,21.18,1.1,6.46,1.84,14.24-1.89,25.6-3.96,12.06-6.13,24.45,2.78,37.03,8.86,12.52,20.36,17.92,29.89,19.75h0c12.48-2.19,26.32-3.98,40.09-5.08h0c1.8-5.83,7.12-10.9,12.45-15.05,7.74-6.02,6.03-11.29,4.2-15.38-1.43-3.19-4.2-5.8-8.18-7.87-3.49-1.8-16.25-3.13-15.91,5.03-2.07-2.94-3.76-6.96-2.52-12.07,1.72-7.12,13.35-8.92,16.24-8.71-2.24-1.9-.85-4.96,4.24-6.37,6.19-1.71,12.05-1.97,17.73-1.83,11.66.3,13.5,3.15,19.43,8.41,7.14,6.35,16.56,8.54,20.29,4.71-2.67,6.08-11.14,9.31-16.59,8.37,2.65,8.41,3.6,15.71,4.55,24.53.43,4.01,1.27,10.76,2.35,16.27,15.65,1.29,31.34,3.45,45.02,6.07h0c5.68-1.66,11.56-4.98,16.82-11.07,5.01-5.78,9.61-13.11,7.71-31.58-.53-5.2-3.14-18.5-2.77-24.75.82-14.18,11.35-23.45,27.88-30.96Z"/><path class="cls-1" d="m347.94,228.53c2.16,1.63,3.42,1.83,4.15,1.67.06.39.77.92.93,1.07.46.41.72.79.84,1.22.98-.41,3.58-1.47,5.95-2.31,2.4-.87,5.73-1.84,5.73-1.84-10.31-2.17-11.87.98-17.6.19Z"/></g><g><g><path class="cls-3" d="m368.48,478.01h-2.33c-1.15-7.32-6.48-11.86-14.24-14.25-5.9-1.83-14.45-4.61-32.74-10.2-21.21-6.51-32.03-23.57-33.48-45.02-2.05-30.29-5.1-83.51-6.21-117.38,23.92-5.88,59.25-10.51,89.01-10.51s65.08,4.62,89.02,10.51c-1.11,33.87-4.16,87.1-6.22,117.38-1.45,21.45-12.26,38.51-33.48,45.02-18.3,5.6-26.85,8.38-32.74,10.2-7.76,2.39-13.09,6.92-14.24,14.25h-2.34"/><path class="cls-2" d="m362.41,400.66l-4.33-2.17-2.81-7.33-6.36-2.78-7.14-6.39-4.25,4.7-6.34,1.47-3.37,5.37-5.13,5.42-6.95,3.67-4.81,8.15-2.72,3.61-4.7,3.65-2.59-2.74-2.76,2.65-3.47,6.42c-1.84-4.79-2.95-8.51-3.5-16.2-1.02-14.23-2.05-32.12-3.07-50.42,23.49-5.06,53.38-8.42,77.67-8.65v55.48c-1.1-.66-2.23-1.18-3.37-3.92Z"/><path class="cls-6" d="m365.78,427.38h-69.84c1.03,2.15,2.22,4.17,3.56,6.07,5.04,7.06,12.19,12.29,21.28,15.07,12.34,3.79,20.2,6.26,25.93,8.08l6.83,2.14c5.6,1.73,9.5,4.23,12.25,7.02v-38.38Z"/><path class="cls-1" d="m439.56,400.39c1.91-1.53,4.11-3.32,7.01-4.38.41-6.51.83-13.48,1.26-20.69-.77.5-1.59,1.16-2.57,1.96-3.33,2.68-7.5,6.05-14.81,6.05-6.87,0-11.33-2.72-14.89-4.92-2.92-1.8-5.25-3.21-8.65-3.21-3.78,0-7.02,1.94-10.47,4-3.69,2.22-7.91,4.74-13.06,4.74s-9.1-1.6-12.21-3.33v19.61c.72.41,1.4.83,2.06,1.24,3.13,1.93,5.84,3.59,10.15,3.59,2.65,0,5.31-1.59,8.39-3.45,4.15-2.48,8.85-5.29,15.13-5.29,5.96,0,9.9,2.43,13.4,4.55,3.11,1.93,5.82,3.59,10.14,3.59s6.33-1.79,9.11-4.05Z"/><path class="cls-1" d="m383.38,445.08c-5.26,0-9.1-1.61-12.21-3.32v24c2.74-2.79,6.66-5.3,12.24-7.02l6.83-2.14c5.72-1.81,13.57-4.28,25.93-8.08,3.6-1.1,6.9-2.59,9.89-4.43-4.49-.84-7.75-2.84-10.51-4.54-2.92-1.8-5.25-3.22-8.65-3.22-3.78,0-7.02,1.96-10.47,4.01-3.69,2.22-7.91,4.73-13.06,4.73Z"/><path class="cls-2" d="m439.56,370.23c2.29-1.85,5.01-4.05,8.86-4.92.14-2.51.28-5.03.43-7.57-23.5-5.05-53.37-8.4-77.67-8.65v20.96c.72.4,1.4.82,2.06,1.24,3.13,1.92,5.84,3.59,10.15,3.59,2.65,0,5.31-1.6,8.39-3.46,4.15-2.48,8.85-5.3,15.13-5.3,5.96,0,9.9,2.44,13.4,4.57,3.11,1.93,5.82,3.58,10.14,3.58s6.33-1.78,9.11-4.05Z"/><path class="cls-2" d="m371.18,410.76v20.44c.72.4,1.4.83,2.06,1.23,3.13,1.94,5.84,3.59,10.15,3.59,2.65,0,5.31-1.59,8.39-3.44,4.15-2.48,8.85-5.3,15.13-5.3,5.96,0,9.9,2.44,13.4,4.57,3.11,1.93,5.82,3.58,10.14,3.58,3.35,0,5.43-1.17,7.59-2.83,4.47-6.64,7.09-14.86,7.73-24.42.02-.4.05-.82.08-1.21-.2.15-.39.3-.6.47-3.33,2.69-7.5,6.06-14.81,6.06-6.87,0-11.33-2.72-14.89-4.92-2.92-1.81-5.25-3.23-8.65-3.23-3.78,0-7.02,1.94-10.47,4.02-3.69,2.22-7.91,4.73-13.06,4.73s-9.1-1.6-12.21-3.33Z"/></g><g><path class="cls-1" d="m287.82,352.42c-1.11-20.41-2.1-40.95-2.68-57.17,24.75-5.62,57.58-9.32,83.34-9.32s58.6,3.7,83.35,9.32c-.59,16.22-1.57,36.76-2.69,57.17-23.33-4.95-54.2-8.61-80.66-8.61s-57.32,3.66-80.66,8.61Z"/><polygon class="cls-3" points="304.08 308.74 305 304.34 300.92 302.49 305.35 302.02 305.82 297.56 307.64 301.67 311.98 300.76 308.68 303.76 310.9 307.67 307.05 305.4 304.08 308.74"/><polygon class="cls-3" points="331.26 305.13 327.5 302.7 324.38 305.91 325.5 301.55 321.5 299.53 325.95 299.26 326.61 294.81 328.25 299 332.63 298.27 329.21 301.13 331.26 305.13"/><polygon class="cls-3" points="351.66 303.56 348.04 300.93 344.76 303.98 346.1 299.68 342.21 297.46 346.67 297.42 347.55 293.01 348.97 297.28 353.39 296.78 349.81 299.46 351.66 303.56"/><polygon class="cls-3" points="372.03 303.12 368.57 300.28 365.12 303.12 366.71 298.91 362.98 296.45 367.42 296.68 368.57 292.34 369.73 296.68 374.17 296.45 370.43 298.91 372.03 303.12"/><polygon class="cls-3" points="430.09 305.43 426.23 307.7 428.46 303.79 425.16 300.78 429.5 301.69 431.33 297.59 431.78 302.05 436.22 302.52 432.14 304.37 433.07 308.77 430.09 305.43"/><polygon class="cls-3" points="407.91 301.14 404.46 298.29 408.85 299 410.47 294.81 411.15 299.26 415.59 299.51 411.61 301.55 412.74 305.91 409.61 302.7 405.85 305.15 407.91 301.14"/><polygon class="cls-3" points="387.34 299.47 383.77 296.79 388.2 297.29 389.61 293.02 390.5 297.43 394.95 297.48 391.07 299.7 392.41 304 389.12 300.94 385.5 303.57 387.34 299.47"/><polygon class="cls-3" points="307.05 341.75 307.99 337.35 303.93 335.48 308.36 335.04 308.86 330.58 310.65 334.7 315 333.82 311.68 336.8 313.87 340.73 310.03 338.43 307.05 341.75"/><polygon class="cls-3" points="333.49 338.41 329.75 335.94 326.6 339.12 327.75 334.77 323.78 332.71 328.23 332.48 328.93 328.04 330.53 332.24 334.92 331.56 331.47 334.38 333.49 338.41"/><polygon class="cls-3" points="353.09 336.98 349.48 334.33 346.19 337.37 347.55 333.08 343.67 330.84 348.13 330.81 349.03 326.41 350.43 330.68 354.85 330.2 351.26 332.87 353.09 336.98"/><polygon class="cls-3" points="372.71 336.62 369.25 333.78 365.79 336.62 367.39 332.41 363.65 329.95 368.09 330.18 369.25 325.84 370.41 330.18 374.84 329.95 371.11 332.41 372.71 336.62"/><polygon class="cls-3" points="428.47 338.66 424.63 340.95 426.84 337.03 423.53 334.04 427.87 334.93 429.68 330.82 430.15 335.28 434.59 335.74 430.52 337.6 431.46 342 428.47 338.66"/><polygon class="cls-3" points="407.05 334.54 403.6 331.7 407.99 332.4 409.6 328.21 410.29 332.65 414.74 332.89 410.76 334.94 411.9 339.29 408.76 336.1 405 338.55 407.05 334.54"/><polygon class="cls-3" points="387.24 332.95 383.67 330.28 388.1 330.77 389.51 326.51 390.4 330.91 394.85 330.96 390.97 333.18 392.31 337.48 389.03 334.42 385.4 337.06 387.24 332.95"/><polygon class="cls-3" points="316.78 322.25 317.83 317.88 313.81 315.91 318.25 315.58 318.85 311.13 320.55 315.29 324.91 314.51 321.53 317.41 323.63 321.38 319.85 319 316.78 322.25"/><polygon class="cls-3" points="297.29 325.35 298.17 320.94 294.08 319.12 298.5 318.62 298.94 314.15 300.78 318.25 305.12 317.31 301.84 320.34 304.1 324.23 300.23 321.98 297.29 325.35"/><polygon class="cls-3" points="343.17 319.51 339.49 316.96 336.27 320.08 337.52 315.75 333.59 313.61 338.05 313.47 338.84 309.05 340.35 313.28 344.76 312.69 341.24 315.45 343.17 319.51"/><polygon class="cls-3" points="362.69 318.57 359.15 315.84 355.79 318.8 357.25 314.54 353.43 312.21 357.88 312.29 358.89 307.91 360.19 312.22 364.62 311.84 360.97 314.42 362.69 318.57"/><polygon class="cls-3" points="382.23 318.83 378.87 315.87 375.32 318.6 377.06 314.44 373.41 311.85 377.84 312.23 379.14 307.94 380.15 312.31 384.6 312.23 380.78 314.56 382.23 318.83"/><polygon class="cls-3" points="437.82 322.14 433.92 324.33 436.23 320.46 432.99 317.39 437.31 318.39 439.21 314.32 439.58 318.8 444 319.36 439.89 321.12 440.73 325.54 437.82 322.14"/><polygon class="cls-3" points="416.51 317.54 413.11 314.63 417.49 315.43 419.19 311.26 419.78 315.72 424.22 316.06 420.21 318.02 421.25 322.4 418.18 319.14 414.37 321.51 416.51 317.54"/><polygon class="cls-3" points="396.79 315.53 393.27 312.77 397.69 313.37 399.19 309.14 399.99 313.56 404.44 313.71 400.51 315.84 401.75 320.17 398.53 317.04 394.85 319.59 396.79 315.53"/></g></g><path class="cls-1" d="m602.81,398.69l-18.02,5.56,4.07,1.66-6.32,4.01c.7-3.67,1.31-7.38,1.83-11.12l9.9-8.27.22,4.38,11.14-15.22-17.15,7.87,4.25,1.11-7.9,6.59c.55-4.54.97-9.13,1.23-13.76l9.75-10.79.82,4.31,9-16.58-15.95,10.08,4.37.53-7.79,8.34c.11-2.87.18-5.75.18-8.65,0-21.74-3.19-42.72-9.11-62.54-9.87.9-19.76-2.25-24.5-3.17,12.64,7.41,17.01,15.42,18.87,24.61-10.11,2.27-23.62-1.05-31-6.84,7.24,6.33,11.79,16.27,12.11,26.53-10.43.52-20.04-4.36-27.11-11.44,4.55,5.06,10.28,17.86,8.92,26.96-8.69-.92-18.95-6.62-24.5-13.42,4.59,10.19,6.81,18.44,6.27,27.57-8.66-1.63-15.22-4.05-22.96-11.45,3.73,9.3,5.11,18.64,4.28,26.32-10-3.52-16.63-7.5-22.25-16.91,2.98,8.29,4.94,19.19,2.87,25.52-8.45-2.53-14.04-7.6-18.42-16.25,4.35,9.15,3.8,19.81,2.33,25.35-3.55-.71-8.16-3.16-10.63-5.87-.11,1.66-.22,3.28-.33,4.83-.42,6.19-1.64,12-3.65,17.32.69.79,2.34,2.75,2.41,2.83,4.45,4.77,10.52,9.33,15.32,10.84-2.08.3-4.92,2.08-7.77,2.4,3.17,3.6,9.63,4.39,13.64,8.48-3.13.36-3.86,2.63-7.61,2.2,7.18,5.54,13.77,5.76,17.47,6.18,1.48.17,6.32.63,9.39.16,4.34-.67,8.83,1.49,10.57,2.5,2.67,1.55,2.51,5.22,1.99,7.06-.32,1.13-.81,2.44-2.8,3.49-1.15.32-1.87.4-.72-.44,1.05-.78,2-5.41-.43-7.22-1.76-1.3-4.25-2.37-7.18-2.23-3.25.16-8.22.45-10.61.21-2.21-.24-3.58,2.68-3.9,3.89-.79,2.88-1.68,6.48-5.86,4.69-5.12-2.94-12.47-2.71-20.87-6.09,1.21,2.58.68,4.81,1.97,7.69-7.48-1.84-9.38-5.64-16.51-8.15,1.17,2.61.86,4.62,2.47,7.09-6.02-1.07-11.63-6.46-20-8.69-.25.08-.5.16-.76.24-3.05.93-5.82,1.79-8.35,2.57,5.92,6.71,10.81,14.94,13.09,24.9,0,0-4.15.12-10.34-2.03,1.77,5.42,2.87,11.27,2.96,17.5,0,0-4.69-.87-11.1-4.83.57,5.89.37,12.03-.86,18.34,0,0-5.43-2.22-11.83-8.75-.73,6.09-2.26,12.28-4.89,18.4,0,0-4.93-3.36-10.01-11.2-2.09,6.1-5.04,12.1-9.05,17.83,0,0-5.4-5.67-9.05-17.1-4.88,7.32-9.51,10.47-9.51,10.47-2.61-6.12-4.15-12.31-4.89-18.41-6.39,6.53-11.82,8.75-11.82,8.75-1.24-6.32-1.44-12.47-.87-18.36-6.42,3.97-11.12,4.84-11.12,4.84.11-6.23,1.2-12.07,2.98-17.5-6.19,2.15-10.33,2.03-10.33,2.03,2.33-10.16,8.98-20.6,13.44-25.29h0c-2.18-.67-4.55-1.41-7.07-2.18-.25-.08-.5-.16-.76-.24-8.36,2.23-13.97,7.62-19.99,8.69,1.61-2.46,1.27-4.47,2.45-7.09-7.12,2.5-9.03,6.3-16.49,8.15,1.27-2.88.75-5.11,1.97-7.69-6.93,3.38-16.44,5.75-20.66,6.64-4.63.96-4.93-5.95-6.45-7.48-.67-.67-4.4-.96-5.96-.7-2.3.39-6.8.2-10.16.13-3.36-.06-5.67.94-7.43,2.26-2.43,1.8-1.29,6.64-.23,7.42,1.15.85.44.75-.72.43-1.99-1.04-2.49-2.36-2.81-3.48-.52-1.85-.68-5.52,2.01-7.06,1.73-1.01,6.22-3.18,10.56-2.51,3.06.48,7.9.02,9.38-.16,1.47-.16,12.31-2.15,19.5-7.69-3.75.43-4.5-1.84-7.62-2.2,4.02-4.08,10.47-4.88,13.65-8.48-2.85-.32-5.36-2.61-7.43-2.91,6.32-3.54,10.52-5.57,14.97-10.34.06-.08,1.7-1.96,2.4-2.74-2.03-5.34-3.26-11.18-3.69-17.41-.1-1.5-.2-3.06-.31-4.66-1.56,1.72-4.75,3.45-9.92,5.31-2.43-5.88-1.25-16.85,1.81-25.33-4.39,8.65-9.37,14.27-17.84,16.8-2.07-6.34-.85-17.42,2.12-25.7-5.62,9.41-11.64,14.18-21.65,17.7-.82-7.68-.03-17.81,3.67-27.11-7.72,7.4-14.29,9.82-22.94,11.45-.55-9.13,1.68-17.38,6.27-27.57-5.54,6.81-17.08,11.46-25.77,12.38.66-7.91,6.2-18.72,9.44-25.08-8.21,5.9-16.93,10.09-26.36,10.6,1.18-8.97,5.2-18.7,12.1-26.53-8.12,6.03-20.54,9.28-29.89,8.01,2.28-9.85,8.32-19.45,16.52-24.59-4.74.92-13.37,2.89-23.24,1.99-5.83,19.51-9.02,40.16-9.11,61.53-4.94-3.88-8.37-4.85-11.78-8.22.64,4.63,1.25,7.15,1.76,12.88.93,10.29,4.81,16.2,11.28,19.89.32,2.94.69,5.85,1.12,8.75-4.79-3.07-11.2-4.97-19.69-4.87,5.16,16.77,12.52,18.01,22.41,19.61.34,1.54.69,3.06,1.06,4.58-5.26-1.36-11.57-1.4-18.76.59,4.97,7.7,11.84,12.37,22.86,14.03.02.06.04.12.06.18-6.77-.55-14.09.43-19.93,3.41,8.35,7.18,16.54,9.92,24.35,9.11.4,1.03.81,2.04,1.22,3.07-6.19,1.64-11.62,4.85-14.69,7.83,6.52,2.05,13.19,3.16,19.22,2.52.07.15.14.31.21.45-3.54,2.7-6.62,7.07-8.52,13.93,4.63-1.19,9.39-1.49,14.13-2.85.95,1.75,1.94,3.49,2.94,5.22-2.5,4.76-3.37,10.74-1.9,17.37,3.98-.92,7.28-2.49,9.99-4.47.93,1.38,1.88,2.75,2.85,4.11-1,7.61.77,15.26,5.29,20.35,1.82-2.06,3.28-4.04,4.54-5.96,9.82-15,3.88-25.81,4.1-35.54.07-.2.16-.4.23-.61.81,11.58,10.87,23.01-.93,37.01-.23.28-.44.51-.65.75,39.96,46.4,99.12,75.8,165.17,75.8,93.77,0,173.7-59.22,204.44-142.31l9.9-4.29-.75,4.32,14.26-12.34-18.49,3.82,3.91,2.03-7.64,3.11c1.35-3.83,2.6-7.72,3.73-11.65l10.85-5.98-.36,4.38,13.09-13.6-18.06,5.49,4.06,1.67-8.67,4.77c1.15-4.25,2.19-8.56,3.1-12.9l8.24-5.23-.35,4.38,13.03-13.65Z"/><path class="cls-3" d="m253.75,478.06c17.75,13.36,27.81,31.89,30.4,46.83-2.23-1.64-6.42-3.33-8.99-2.84-2.31-15.75-10.54-28.47-23.44-38.84.55-2.39,1.32-4.02,2.03-5.15Z"/><g><path class="cls-3" d="m240.18,491.94c4.22,1.65,6.34,1.04,7.4-.44,2.26-3.21,1.19-7.42-.26-8.17.32,1.29.27,2.65-.03,4.19-.23,1.25-.86,3.31-3.2,3.02-1.25-.14-3.54-.74-4.9-1.68-.97-.66-.96-2.33-.43-3.74.27-.71.59-1.71,1.46-2.43-1.45.33-2.3,1.09-3.43,1.96-1.13.88-2.8,1.05-3.75,0-1.19-1.3-1.93-2.29-2.32-3.18-1.01-2.29,1.94-3.97,3.66-4.87-2.96.04-3.48,1.16-5.87.75-2.4-.41-3.01-4.26-3-5.54,0-.94,1.15-1.83,2.56-2.15,1.31-.31,2.89-.19,3.77-.1-.13-.6-.21-1.32-.19-2.09-2.42-.56-7.08.26-7.96,1.59-1.12,1.69-.86,2.58.06,5.58.88,2.89,1.56,3.92,3.45,4.2.52.07,1.5.22,2.63-.21-.59.37-.99.69-1.29,1.44-.32.77-.82,2.07,1.44,4.82,2,2.4,3.95,3.32,5.59,2.43.94-.52,1.25-1.1,1.71-1.55-.26.62-.53,1.33-.67,2.02-.46,2.36,1.32,3.28,3.56,4.14Z"/><g><path class="cls-3" d="m237.09,473.47c1.21-1.51,4.13-1.69,5.79-.65-1.13,2.12-1.23,5.67-.6,7.4-4.19-.66-4.94-4.64-5.18-6.75Z"/><path class="cls-3" d="m243.64,473.23c2.46-.17,3.37-1.38,3.82-2.59.44-1.19,1.77-1.93,1.79-.12.02,1.8.03,2.6-.99,3.1-1.02.5-2.84.65-4.61-.39Z"/><path class="cls-3" d="m244.9,477.13c-.22,1.31-.71,2.57-1.52,3.75-.63.9-1.52,1.47-2.18,2.03,1.13.86,2.73,1.35,4.07,1.28,1.34-.07,1.39-.27,1.31-.78-.31-2.23-1.16-5.41-1.68-6.29Z"/></g></g><g><path class="cls-3" d="m492.2,471.3c1.14,2.11,1.22,5.67.61,7.4,4.18-.67,4.93-4.64,5.18-6.75-1.21-1.51-4.12-1.69-5.79-.65Z"/><path class="cls-3" d="m491.44,471.72c-2.46-.17-3.36-1.39-3.81-2.59-.46-1.19-1.78-1.92-1.79-.12-.03,1.8-.04,2.6.98,3.09,1.02.5,2.86.66,4.62-.39Z"/><path class="cls-3" d="m491.71,479.35c-.81-1.18-1.3-2.43-1.53-3.75-.5.89-1.36,4.07-1.68,6.3-.07.51-.03.7,1.32.78,1.34.07,2.94-.43,4.07-1.28-.67-.56-1.55-1.12-2.19-2.04Z"/><g><path class="cls-3" d="m564.65,412.78l4.24,1.16-63.81,50.4h.01s-1.5,1.2-1.5,1.2c-.1.01-.19.03-.29.04.05.75,0,1.47-.11,2.1.9-.04,2.13-.03,3.17.24,1.38.36,2.5,1.29,2.48,2.22-.02,1.28-.72,5.11-3.13,5.46-2.42.35-2.89-.79-5.86-.93,1.69.95,4.59,2.71,3.52,4.98-.42.88-1.17,1.84-2.4,3.13-.98,1.01-2.64.79-3.75-.12-1.11-.9-1.93-1.68-3.37-2.06.85.75,1.15,1.76,1.38,2.47.5,1.42.47,3.09-.52,3.73-1.39.88-3.69,1.43-4.95,1.54-2.33.21-2.91-1.87-3.12-3.11-.25-1.54-.26-2.91.09-4.2-1.46.71-2.65,4.89-.49,8.16,1.01,1.51,3.11,2.17,7.39.66,2.26-.81,4.06-1.67,3.67-4.04-.12-.7-.38-1.41-.6-2.04.44.46.73,1.05,1.66,1.58,1.62.95,3.58.07,5.65-2.27,2.33-2.67,1.87-4,1.58-4.77-.28-.77-.68-1.09-1.25-1.47,1.11.45,2.11.33,2.63.28,1.89-.22,2.61-1.24,3.57-4.1,1-2.97,1.29-3.85.21-5.57-.45-.72-1.99-1.33-3.69-1.66l63.31-49.95.17,4.4,11.35-15.07-17.26,7.62Z"/><path class="cls-3" d="m530.62,428.27l44.96-56.93,1.19,4.24,7.55-17.3-15.02,11.41,4.38.16-40.71,51.6c-3.19,4.84-6.59,9.98-9.77,14.8l.08.07c2.38-2.61,4.84-5.31,7.33-8.05Z"/><path class="cls-3" d="m525.26,445.19c3.78-2.98,7.72-6.09,11.57-9.14l37.45-34.67.52,4.37,10.11-15.94-16.6,8.98,4.31.82-37.56,34.83c-3.38,3.71-6.69,7.34-9.81,10.75Z"/><path class="cls-3" d="m566.86,437.03l-52.73,26.41c-.93.74-1.67,1.32-2.13,1.69.37.3.69.63.91.99.1.17.18.33.27.48l54.76-27.41-.73,4.34,14.2-12.44-18.46,3.94,3.91,2Z"/><path class="cls-3" d="m487.17,492.89c-.79-.26-1.48-.66-2.07-1.2l-9.44,19.58.05.02-3.45,1.16-11.17,21.4,5.41-1.65,1.97,5.3,10.58-21.7-1.24-3.5,9.38-19.42Z"/><path class="cls-3" d="m523.93,455.72c3.62-1.81,7.79-3.91,12.04-6.03l35.06-22.9-.23,4.39,12.68-13.98-17.88,6.02,4.11,1.54-38.15,24.94c-2.69,2.12-5.27,4.15-7.63,6.02Z"/><path class="cls-3" d="m482.87,487.66c-.27-1.04-.36-2.12-.28-3.2l-12.53,13.66-3.69.31-.31.32h0s-17.43,17.43-17.43,17.43l.82-.04-.06.07.21-.07,4.3-.21.76,4.27,14.44-18.98,2.78-.59,10.98-12.96Z"/><path class="cls-3" d="m505.96,460.43c1.54-1.21,3.74-2.95,6.39-5.04l61.54-67.29.87,4.31,8.81-16.69-15.83,10.27,4.36.47-64.43,70.49c-.62,1.26-1.19,2.42-1.72,3.48Z"/><path class="cls-3" d="m450.89,506.44l22.93-16.15c2.63-2.87,5.5-6,6.52-7.12l-28.66,18.91.03.05-3.57-.74-2.09,1.31-18.4,11.48,5.16,1.07.62,3.88,14.84-12.81,2.61.12Z"/><path class="cls-3" d="m431.88,508.56l9.19-5.73,8.57-5.84,2.91.56s20.88-12.87,25.99-16.21c.25-.17.41-.27.41-.27h0c.05-.03.11-.07.16-.1l-27.43,13.68-3.47-1.08-21.82,10.35,4.91,1.8.56,2.85Z"/></g><path class="cls-3" d="m535.29,381.91l4.32-.76-39.41,79.83c.32.16.6.32.82.45.47.26.84.6,1.15.98l39.61-80.18,2.03,3.9,3.83-18.49-12.36,14.27Z"/><path class="cls-3" d="m540.03,395.38l4.38-.22-24.76,37.56c-2.9,5.87-5.72,11.58-8.2,16.6.13-.14.26-.28.39-.43l34.58-52.4,1.54,4.12,6.06-17.88-14,12.65Z"/></g><path class="cls-3" d="m177.4,442.68c.56.06.43.02-.2-.19-6.58-3.67-11.24-4.93-20.29-3.71,8.5.64,14.46,1.79,20.49,3.9Z"/><path class="cls-3" d="m181.45,488.99c.98-6.31,5.15-13.85,11.3-18.91,4.3-3.56,6.73-4.87,3.15-1.11-5.46,5.71-11.78,14.94-14.45,20.02Z"/><path class="cls-3" d="m194.9,506.2c-2.36-5.94-.31-15.47,2.26-21.7,1.78-4.31,6.19-10.85,7.56-11.48-4.89,7.52-10.09,27.45-9.82,33.18Z"/><path class="cls-3" d="m175.18,423.36c-.45-2.23-2.64-3.69-4.89-3.24-2.25.45-3.7,2.64-3.24,4.89.44,2.25,2.64,3.7,4.89,3.25,2.24-.45,3.7-2.64,3.25-4.9Z"/><path class="cls-3" d="m211.3,429.07c.14-6.22-.8-12.62-.07-19.86-12.38,9.02-16.6,24.84-11.48,35.89-.51-.09-1.04-.1-1.58,0-2.32.47-3.83,2.74-3.36,5.07.46,2.34,2.74,3.83,5.06,3.36,2.33-.48,3.84-2.75,3.37-5.06-.24-1.19-.94-2.15-1.87-2.75-2.06-9.78-.36-22,4.77-27.15-1.61,6.13-4.51,18.95-2.62,30.78,2.02-2.3,3.52-4.54,4.65-6.75.22,1.87.69,3.8,1.47,5.82.27-9.41,3.42-18.73,13.18-25.22-7.16,9.07-11.26,19.69-12.12,27.66,5.21-6.62,17.04-8.57,17.87-34.43-5.98,1.8-13.17,6.18-17.27,12.64Z"/><path class="cls-3" d="m219.47,455.66c-.49-2.45-2.86-4.03-5.3-3.55-2.44.51-4.01,2.87-3.52,5.32.49,2.42,2.86,4,5.29,3.51,2.44-.51,4.01-2.87,3.52-5.29Z"/><path class="cls-3" d="m217.9,469.28c-.49-2.45-2.86-4.02-5.29-3.54-2.43.49-4.02,2.86-3.51,5.31.48,2.42,2.85,4.01,5.29,3.52,2.45-.5,4.01-2.87,3.52-5.29Z"/><path class="cls-3" d="m191.83,402.89c-9.11,7.63-11.67,17.23-10.7,25.63-.35-.03-.71-.04-1.07.03-1.89.39-3.12,2.23-2.73,4.11.38,1.9,2.22,3.13,4.11,2.73.43-.09.82-.25,1.17-.48.86,2.45,2,4.7,3.33,6.62-.81-2.84-1.42-5.98-1.72-9.18.04-.35.04-.7-.03-1.07-.02-.09-.05-.16-.07-.24-.49-7.17.63-14.56,4.6-19.88-1.25,7.8-3.08,22.9-1.33,32.27,2.67-9.97,17.05-14.38,4.46-40.55Z"/><path class="cls-3" d="m228.4,461.75c-.38-1.88-2.23-3.11-4.13-2.74-1.89.39-3.11,2.23-2.74,4.13.39,1.89,2.23,3.12,4.13,2.74,1.9-.4,3.12-2.25,2.74-4.13Z"/><path class="cls-3" d="m209.06,461.09c-.34-1.74-2.03-2.86-3.78-2.5-1.75.35-2.87,2.04-2.52,3.78.34,1.75,2.05,2.88,3.79,2.52,1.75-.35,2.87-2.04,2.51-3.79Z"/><path class="cls-3" d="m164.98,416.75c-.24-1.45-1.5-2.47-2.91-2.48-4.52-6.09-11.02-12.64-21.88-13.79,5.94,2.82,14.89,8.3,21.09,13.9-1.48.39-2.45,1.84-2.18,3.37.28,1.63,1.82,2.71,3.45,2.45,1.62-.28,2.71-1.83,2.44-3.45Z"/><path class="cls-3" d="m165.12,396.19c-.41-2.05-2.4-3.37-4.45-2.95-.09.02-.17.06-.26.08-2.46-9.62-4.85-17.11-15.77-24.61,5.48,7.01,11.8,17.21,15.33,24.74-1.64.67-2.63,2.42-2.27,4.23.42,2.04,2.41,3.36,4.45,2.95,2.04-.42,3.36-2.41,2.96-4.45Z"/><path class="cls-3" d="m176.19,433.98c-.27-1.62-1.81-2.71-3.44-2.42-.79.14-1.45.58-1.89,1.16-9.67-8.53-16.31-8.58-21.41-8.81,3.07,1.1,14.14,4.27,21.15,9.23-.29.55-.41,1.19-.3,1.85.28,1.64,1.83,2.72,3.45,2.46,1.62-.29,2.72-1.83,2.43-3.47Z"/><path class="cls-3" d="m184.31,446.06c-.48-2.33-2.74-3.83-5.07-3.37-2.32.47-3.82,2.74-3.36,5.07.47,2.34,2.75,3.83,5.06,3.36,2.33-.47,3.84-2.75,3.37-5.06Z"/><path class="cls-3" d="m190.55,453.45c-.28-1.62-1.81-2.7-3.45-2.42-1.02.16-1.82.83-2.22,1.71-8.4-1.11-17.56.06-25.24,4.35,8.64-2,17.66-3.84,25.05-3.87.01,0,.02,0,.03,0-.1.4-.14.82-.07,1.25.28,1.62,1.83,2.72,3.46,2.44,1.63-.27,2.71-1.83,2.44-3.44Z"/><path class="cls-3" d="m199.21,458.49c-.43-2.09-2.48-3.47-4.59-3.05-2.08.43-3.44,2.46-3.04,4.55-.09,0-.16-.02-.27-.02-6.22-.24-16.59,1.41-22.95,8.94,6.52-3.85,16.89-7.8,23.11-8.64.06,0,.12,0,.18,0,.53,1.96,2.49,3.21,4.51,2.8,2.1-.43,3.45-2.48,3.04-4.58Z"/><g><g><path class="cls-1" d="m641.6,236.04c10.15-4.45,21.78-2.41,24.74,4.31,2.96,6.8-3.41,16.73-13.57,21.17-10.22,4.48-21.87,2.45-24.84-4.34-2.94-6.73,3.43-16.66,13.67-21.15Zm15.32,34.97c12.85-5.63,18.66-19.97,13.24-32.34-5.43-12.38-19.89-17.75-32.72-12.11-12.85,5.63-18.77,19.93-13.35,32.3,5.43,12.37,19.99,17.79,32.83,12.15Z"/><path class="cls-1" d="m638.98,304.48l-4.91-19.36,2.99-.76,1.36,5.41,41-10.4-1.37-5.41,2.99-.76,7.45,29.33,1.98-.52.98,3.85-11.32,2.87-.96-3.77,5.13-1.3-3.76-14.8-16.8,4.26,2.9,11.39,4.84-1.22,1.04,3.82-14.01,3.55-1.05-3.83,4.98-1.26-2.89-11.38-18.8,4.77,1.2,4.76-2.98.76Z"/></g><g><path class="cls-1" d="m65.74,252.52l-1.77,5.9,26.46,7.89c7.95,2.37,12.12,6.61,13.16,13.43.48,3.51.23,7.19-.86,10.86-3.4,11.39-11.87,16.92-21.57,14.02l-28.43-8.47-1.59,5.35-2.96-.88,5.88-19.71,2.95.88-1.58,5.28,26.24,7.82c7.11,2.12,10.72,1.82,13.7-1.2,1.34-1.44,2.44-3.34,3.07-5.45,2.52-8.44-1.01-14.85-9.6-17.42l-26.17-7.8-1.74,5.84-3.03-.9,4.87-16.32,2.96.88Z"/><path class="cls-1" d="m112.25,263.95c-1.05,2.5-3.93,3.67-6.44,2.63-2.5-1.05-3.69-3.93-2.63-6.43,1.05-2.51,3.93-3.69,6.44-2.63,2.5,1.05,3.68,3.93,2.64,6.44Z"/><path class="cls-1" d="m121.4,242.99l-1.98,3.52-11.52-6.48,1.98-3.53,4.73,2.67c3.93-1.58,5.98-3.29,7.75-6.43,2.23-3.97,1.47-8.18-1.85-10.05-2.88-1.62-5.97-.91-13.16,2.88-7.49,4.04-8.57,4.44-11.42,5.02-2.76.56-5.79-.05-8.6-1.62-7.05-3.96-8.81-11.77-4.41-19.59,1.4-2.5,2.91-4.27,5.29-6.12l-1.91-1.08,1.94-3.45,10.94,6.15-1.94,3.45-4.42-2.48c-3.24,1.72-4.85,3.08-6.18,5.45-1.87,3.33-.94,7.22,2.06,8.91,2.57,1.45,4.99.87,12.35-3.08,3.57-1.86,5.76-3.07,6.68-3.49,1.86-.9,4.01-1.44,6.36-1.56,2.66-.1,5.1.51,7.6,1.91,7.29,4.11,9.42,12.29,5.22,19.79-2.09,3.71-4.37,5.97-7.75,7.93l2.24,1.26Z"/><path class="cls-1" d="m140.64,209.73c0,2.68-2.12,4.81-4.8,4.81s-4.8-2.13-4.8-4.81,2.13-4.8,4.8-4.8,4.8,2.12,4.8,4.8Z"/></g><g><path class="cls-1" d="m254.26,115.29l-31.08,16-1.41-2.75,4.96-2.55-19.36-37.61-4.96,2.56-1.41-2.75,26.89-13.84-.93-1.83,3.52-1.82,5.34,10.38-3.46,1.79-2.42-4.71-13.58,6.99,7.93,15.42,10.44-5.38-2.29-4.43,3.5-1.89,6.62,12.86-3.49,1.88-2.36-4.57-10.45,5.38,8.31,16.13,14.16-7.3-2.49-4.83,3.52-1.81,4.48,8.68Z"/><path class="cls-1" d="m284.16,104.49l-20.21,6.7-.98-2.93,5.3-1.75-13.31-40.15-5.3,1.75-.96-2.93,21.12-7c8.64-2.86,16.02.5,18.68,8.51,2.52,7.59-2.1,16.09-10.25,18.79-1.18.39-1.98.57-3.9.83l-1.13-3.41c.98-.1,1.33-.21,1.96-.42,4.74-1.57,6.25-5.86,4.19-12.06-2.16-6.56-5.87-9.12-10.9-7.46l-4.18,1.39,12.99,39.17,5.93-1.96.97,2.93Z"/><path class="cls-1" d="m308.11,77.75l4.17-19.36,10.01,16.9-14.18,2.46Zm35.72,10.42l-3.04.53-25.97-43.11-4.41.76-10.63,49.47-4.49.77.53,3.04,14.97-2.59-.53-3.04-5.78,1.01,2.66-12.54,17.58-3.05,6.52,10.94-5.06.87.52,3.04,17.66-3.06-.53-3.04Z"/><path class="cls-1" d="m364.74,46.93h4.63c5.22.03,8.23,3.41,8.2,9.28,0,5.8-3.48,9.83-8.53,9.82l-4.34-.02.04-19.09Zm29.8,41.27h-3.01c-1.47,0-2.35-.67-4.03-3.25l-10.39-16.04c6.91-2.12,10.29-6.36,10.31-12.97.01-3.9-1.15-7.05-3.57-9.48-2.63-2.65-6.16-3.61-12.47-3.63l-21.67-.05v3.08h5.58s-.1,42.31-.1,42.31l-5.58-.02v3.09s20.56.05,20.56.05v-3.09h-5.51s.04-18.51.04-18.51h1.99s10.97,17.29,10.97,17.29c2.49,3.9,3.23,4.34,7.55,4.35l9.32.02.02-3.15Z"/><path class="cls-1" d="m427.77,97.18l-23.32-3.94.52-3.04,7.01,1.19,6.85-40.47-12.53-2.12-1.01,6.01-3.98-.67,2.07-12.31,4,.67-.35,2.03,34.31,5.8.35-2.03,3.97.67-2.08,12.31-3.98-.67,1.02-6.01-12.45-2.1-6.84,40.47,6.94,1.17-.5,3.04Z"/><path class="cls-1" d="m496.38,120.36l-20.33-7.89,1.11-2.87,5.75,2.23,11.47-29.58-27.91,27.3-3.89-38.92-11.23,28.96,5.76,2.23-1.12,2.87-15.82-6.13,1.11-2.88,5.75,2.23,15.3-39.44-5.75-2.23,1.11-2.88,12.12,4.7,3.89,38.13,26.65-26.28,13.55,5.26-1.12,2.87-5.73-2.23-15.29,39.43,5.75,2.23-1.12,2.88Z"/><path class="cls-1" d="m532.13,143.74l-29.47-18.81,1.66-2.61,4.7,3.01,22.77-35.65-4.71-3,1.66-2.59,25.5,16.28,1.09-1.73,3.35,2.13-6.28,9.84-3.29-2.1,2.86-4.45-12.87-8.22-9.32,14.61,9.89,6.32,2.7-4.21,3.38,2.08-7.8,12.19-3.38-2.07,2.77-4.33-9.91-6.32-9.75,15.28,13.43,8.58,2.93-4.58,3.35,2.14-5.26,8.23Z"/><path class="cls-1" d="m206.42,113.7c-8.03-10.95-23-13.07-34.18-4.86l-18.46,13.57,1.82,2.49,4.5-3.31,24.99,34.02c1.19.46,2.37.9,3.53,1.34l12.25-9c5.8-4.26,8.83-8.94,9.94-15.24,1.16-6.85-.39-13.56-4.39-19Zm-9.42,32.07l-4.79,3.52-23.87-32.49,5.03-3.69c6.93-5.09,18.32-1.98,24.72,6.72,6.83,9.29,6.38,20.46-1.08,25.94Z"/><path class="cls-1" d="m594.67,133.68l-2.08,2.29,4.29,3.91-20.73,22.73,5.23-41.05-10.79-9.84-2.07,2.28,3.9,3.56-.8,4.35-25.97,28.48-4.5-4.11-2.08,2.28,12.26,11.18,2.07-2.29-4.28-3.91,21.62-23.7-4.62,37.66c4.47-1.16,9.26-2.45,14.45-3.9.43-.12.82-.24,1.24-.35l18.48-20.27,4.57,4.15,2.09-2.27-12.28-11.19Z"/><path class="cls-1" d="m644.09,187.07l-1.63,1.25-21.12-27.66,1.63-1.25-2.46-3.22-9.92,7.58,2.46,3.21,4.84-3.7,7.71,10.09-32.61,24.92-1.68-2.21c-.94.52-1.89.99-2.84,1.38l12.1,15.82,2.46-1.87-4.28-5.61,32.62-24.92,7.66,10.04-4.84,3.7,2.46,3.21,9.91-7.58-2.45-3.21Z"/></g><g><path class="cls-1" d="m429.41,691.27l-3.94.86-2.84-12.91,3.96-.87,1.16,5.31c3.79,1.87,6.43,2.28,9.95,1.5,4.45-.97,7.09-4.33,6.28-8.07-.71-3.23-3.3-5.07-10.91-7.91-8-2.91-9.02-3.43-11.35-5.18-2.26-1.69-3.81-4.35-4.5-7.5-1.74-7.89,2.94-14.41,11.69-16.33,2.79-.61,5.12-.66,8.09-.13l-.47-2.14,3.87-.85,2.69,12.27-3.88.85-1.09-4.95c-3.44-1.28-5.52-1.58-8.18-1-3.73.82-6.03,4.11-5.28,7.49.63,2.86,2.67,4.3,10.51,7.16,3.77,1.43,6.14,2.26,7.05,2.66,1.9.78,3.76,2.03,5.4,3.71,1.85,1.93,3.01,4.16,3.63,6.96,1.79,8.16-2.9,15.21-11.31,17.05-4.15.91-7.35.71-11.07-.51l.55,2.52Z"/><path class="cls-1" d="m504.06,667.79l-32.53,12.78-1.12-2.87,5.18-2.04-15.45-39.38-5.2,2.05-1.13-2.87,28.17-11.07-.77-1.92,3.7-1.45,4.27,10.88-3.62,1.43-1.92-4.92-14.23,5.59,6.34,16.12,10.93-4.3-1.82-4.65,3.67-1.52,5.28,13.47-3.66,1.52-1.88-4.78-10.95,4.3,6.63,16.88,14.84-5.82-2-5.06,3.7-1.44,3.57,9.08Z"/><path class="cls-1" d="m553.01,637.98c-4.15,5.19-7.06,7.9-11.84,10.79-13.25,8.04-28.08,4.83-35.66-7.66-7.5-12.37-3.67-27.32,8.96-34.97,4.06-2.48,7.23-3.63,11.83-4.26l-1.6-2.64,3.45-2.1,6.82,11.24-3.45,2.1-2.44-4.02c-5.11-.35-7.54.19-10.87,2.21-8.72,5.3-10.39,16.27-4.08,26.69,6.18,10.18,17.68,14.02,26.36,8.76,3.14-1.9,4.98-3.96,6.82-7.57l-2.89-4.77,3.52-2.13,5.06,8.34Z"/><path class="cls-1" d="m575.1,562.19l-4.55,4.16,18.62,20.41c5.6,6.13,6.98,11.91,4.36,18.28-1.4,3.26-3.51,6.29-6.33,8.85-8.78,8.04-18.89,8.4-25.73.92l-20-21.92-4.12,3.77-2.07-2.27,15.18-13.86,2.08,2.28-4.08,3.71,18.47,20.24c5,5.47,8.26,7.08,12.36,6.03,1.9-.55,3.82-1.6,5.44-3.09,6.51-5.94,6.79-13.25.75-19.88l-18.41-20.18-4.51,4.12-2.13-2.34,12.59-11.48,2.08,2.27Z"/><path class="cls-1" d="m657.57,519.37l-9.81,18.08-2.71-1.47,2.66-4.91-37.18-20.14-2.67,4.91-2.69-1.48,9.78-18.08,2.71,1.48-2.62,4.84,37.19,20.15,2.63-4.83,2.71,1.46Z"/><path class="cls-1" d="m676.32,475.42l-8.33,22.12-2.88-1.08,2.5-6.66-38.41-14.47-4.49,11.89,5.71,2.14-1.42,3.79-11.69-4.4,1.42-3.78,1.93.73,12.27-32.57-1.93-.73,1.42-3.78,11.69,4.39-1.43,3.78-5.7-2.15-4.45,11.82,38.41,14.46,2.47-6.59,2.89,1.08Z"/><path class="cls-1" d="m689.34,421.39l-3.94,20.18-3.03-.59,1.06-5.41-19.89-3.89-24.41,10.05-.89,4.54-3.02-.59,3.93-20.18,3.04.59-1.05,5.33,17.78-7.14-13.92-12.67-1.19,6.12-3.02-.59,3.28-16.78,3.01.59-1,5.19,17.39,15.88,21.76,4.27,1.07-5.48,3.03.59Z"/><path class="cls-1" d="m639.89,545.83l-1.8,2.42c-.88,1.17-1.93,1.5-5.01,1.31l-19.07-1.17c2.42-6.81,1-12.06-4.3-16-3.13-2.33-6.36-3.26-9.75-2.76-3.7.55-6.57,2.81-10.34,7.88l-12.9,17.39,2.46,1.84,3.34-4.48,33.97,25.21-3.33,4.48,2.48,1.84,12.26-16.5-2.48-1.84-3.28,4.42-14.86-11.04,1.18-1.58,20.42,1.45c4.61.31,5.4-.02,7.99-3.49l5.57-7.49-2.55-1.88Zm-50.89-.56l2.75-3.71c3.11-4.19,7.63-4.59,12.34-1.09,4.65,3.47,5.83,8.63,2.83,12.71l-2.59,3.48-15.33-11.38Z"/></g><g><path class="cls-1" d="m58,466.81l-4.88-19.97,2.99-.74,1.31,5.35,18.76-4.58-5.67-23.19-18.76,4.58,1.31,5.35-3,.73-4.88-19.97,3-.74,1.32,5.43,41.09-10.05-1.32-5.42,2.99-.73,4.88,19.96-3,.73-1.3-5.34-18.12,4.43,5.67,23.18,18.12-4.42-1.31-5.34,3-.74,4.88,19.98-3,.73-1.31-5.42-41.1,10.04,1.34,5.43-3.01.72Z"/><path class="cls-1" d="m85.99,477.99c10.09-4.6,21.75-2.72,24.8,3.96,3.07,6.75-3.17,16.77-13.26,21.38-10.16,4.62-21.82,2.73-24.89-4-3.04-6.7,3.19-16.7,13.36-21.34Zm15.83,34.75c12.75-5.81,18.37-20.23,12.77-32.52-5.6-12.3-20.14-17.46-32.9-11.64-12.76,5.82-18.48,20.2-12.87,32.49,5.59,12.29,20.23,17.5,33,11.67Z"/><path class="cls-1" d="m120.48,582.49l-12.81-17.65,2.5-1.8,3.63,4.99,25.67-18.63-38.25,7.8,17.82-34.8-25.13,18.24,3.63,4.99-2.5,1.83-9.97-13.73,2.49-1.81,3.63,4.98,34.21-24.85-3.61-4.98,2.49-1.82,7.63,10.51-17.4,34.16,36.65-7.66,8.55,11.77-2.5,1.82-3.62-5-34.23,24.85,3.64,5-2.5,1.8Z"/><path class="cls-1" d="m158.68,620.05l-25.71-23.68,2.09-2.27,4.11,3.78,28.67-31.1-4.11-3.78,2.08-2.27,22.26,20.51,1.38-1.52,2.93,2.69-7.92,8.58-2.86-2.63,3.57-3.89-11.23-10.36-11.74,12.74,8.64,7.97,3.38-3.67,2.96,2.62-9.81,10.65-2.97-2.63,3.49-3.79-8.64-7.96-12.29,13.34,11.71,10.8,3.68-4,2.91,2.68-6.61,7.18Z"/><path class="cls-1" d="m202.41,650.05l-28.76-19.35,1.73-2.57,4.64,3.13,23.61-35.11-4.64-3.12,1.73-2.55,17.06,11.48-1.72,2.56-4.57-3.07-22.92,34.06,12.98,8.73,3.04-4.52,3.28,2.22-5.45,8.1Z"/><path class="cls-1" d="m231.7,643.79l14.36-13.63-1.26,19.6-13.1-5.97Zm23.63,28.75l-2.81-1.28,2.86-50.25-4.08-1.85-36.68,34.86-4.14-1.89-1.28,2.81,13.83,6.3,1.28-2.82-5.35-2.43,9.27-8.85,16.25,7.39-.79,12.72-4.68-2.12-1.28,2.79,16.3,7.42,1.29-2.8Z"/><path class="cls-1" d="m306.15,689.87l-5-1.2-16.48-40.95-7.47,31.21,5.64,1.35-.72,3.01-16.14-3.87.72-3,5.93,1.42,8.98-37.48-1.42-4.2-5.14-1.23.72-3.01,14.22,3.41,15.25,38.46,7.17-29.92-5.65-1.35.73-3,16.14,3.86-.72,2.99-6-1.43-10.75,44.93Z"/><path class="cls-1" d="m353.82,645.06l-22.89-.82-.12,3.08,5.58.2-1.51,42.27h-.01l-5.58-.2-.11,3.09,22.82.82h-.05s.07-.01.07-.01c7.19.26,12.48-1.53,17.25-5.78,5.16-4.65,8.1-10.87,8.35-17.62.49-13.57-9.93-24.52-23.79-25.02Zm13.44,24.66c-.41,11.52-7.69,20-16.94,19.67l-5.95-.21,1.45-40.29,6.23.22c8.59.31,15.6,9.82,15.21,20.61Z"/></g></g><path class="cls-3" d="m183.34,382.2c-14.02,6.14-20.53,23.61-13.35,36.43,6.56-9.33,18.93-11.36,13.35-36.43Zm-13.31,35.76c-1.69-7.05,2.72-25.82,9.01-29.68-4.08,9.1-5.75,17.54-9.01,29.68Z"/><path class="cls-3" d="m169.09,355.96c-4.49,1.84-10.85,8.07-13.7,16.28,1.11,1.28,2.04,2.63,2.86,4.02,1.58-6.03,4.97-13.02,8.39-16-2.25,3.83-5.37,12.28-6.91,18.95,1.58,3.7,2.28,7.57,2.16,11.23,8.57-7.83,11.54-21.4,7.2-34.5Z"/></g></svg>